<mxfile host="Electron" modified="2024-01-22T06:10:32.258Z" agent="Mozilla/5.0 (Windows NT 10.0; Win64; x64) AppleWebKit/537.36 (KHTML, like Gecko) draw.io/21.2.8 Chrome/112.0.5615.165 Electron/24.2.0 Safari/537.36" etag="cUColDMxHcZFmzGk4dau" version="21.2.8" type="device">
  <diagram name="Page-1" id="OtLpVbttyD6tY0DJiHsU">
    <mxGraphModel dx="1418" dy="820" grid="1" gridSize="10" guides="1" tooltips="1" connect="1" arrows="1" fold="1" page="1" pageScale="1" pageWidth="3300" pageHeight="4681" background="#999999" math="0" shadow="0">
      <root>
        <mxCell id="0" />
        <mxCell id="1" parent="0" />
        <mxCell id="E_9uIOzC6fXgHnJ6oWtM-4" value="" style="group" vertex="1" connectable="0" parent="1">
          <mxGeometry x="280" y="410" width="640" height="600" as="geometry" />
        </mxCell>
        <mxCell id="E_9uIOzC6fXgHnJ6oWtM-3" value="" style="rounded=0;whiteSpace=wrap;html=1;fillColor=#2e2f30;" vertex="1" parent="E_9uIOzC6fXgHnJ6oWtM-4">
          <mxGeometry width="640" height="600" as="geometry" />
        </mxCell>
        <mxCell id="E_9uIOzC6fXgHnJ6oWtM-2" value="" style="shape=image;verticalLabelPosition=bottom;labelBackgroundColor=default;verticalAlign=top;aspect=fixed;imageAspect=0;image=data:image/png,iVBORw0KGgoAAAANSUhEUgAAAeoAAAIBCAYAAACGBvzmAAAAAXNSR0IArs4c6QAAAARnQU1BAACxjwv8YQUAAAAJcEhZcwAADsMAAA7DAcdvqGQAAGOdSURBVHhe7d1/bFTnnT/6N4G9YLuXYI/dYIPNkBCD2UsAe0noWhiFS1qxhNpKL5a9f6xgb6gSSwuILJKpiGiUqFhiiyhXcqKSLah/rC1zW9mlFHWTTYRzvUvC2kD5bsAOKQMONikeTLI1Bi2E+zznPGfmnJlz5veMjz3vlzTMmWfm/JgzZj7n8/yaac8sX/EIRERE5EqPqXsiIiJyIQZqIiIiF2OgJiIicjEGaiIiIhdjoCYiInIxBmoiIiIXY6AmIiJyMQZqIiIiF2OgJiIicjEGaiIiIhdjoCYiInIxBmoiIiIXY6AmIiJyMQZqIiIiF2OgJiIicjEGaiIiIhdjoCYiInKxuAL1rFd/iife/hd4Xl2jSohSrRCN+5vQfqwJBzeXq7LU8W5uVNsuVCVERO4We6AubUDeM8Xa4own5mGGtkQz6uTFy2uYpR6ni7d6NXbv14OMfmvEbhHIvOp5Zyrw7V8dw2uDEt9fkhYswir9zwwlG59Cjb5IRJS1Yg/Ug2dw/0u5MIx758/ggVaY7byYtUJElS9vpPV81OxoRMu2SlQV56sSKR9VG9ejZf+GlAezTO/P4toVnB3WF4dOfo5ufZGIKGvFUfXtw59//Lf48tXX8FWnT5Vlu1JMf0LcpTFQy6rappUyYI6i92QHmre0okHe9r2PXhnQiheiKc5sOZJM7y/cCNr26PvcdXxAlRERZS92JkvGc89qVd73+j7SH6dcOTZv1LPa3iNtOHB8RFwuKdcGcGCPCJ5yubgSm6u1UhsFmK+qkqNLxf6IiCiVpj2zfMUjtWz13Gt4YkuVemDy5W/g/3G7Qwbpxbd+/BPkffk2vvwt8K0X6/R27S97MfbPP8WfsSa8bFCtal737Y8w47kG5G34PmbJjFV4oF5/L/D6EKVezHrxH7RtB9rP5TqnfoU/f+xcAyDbmD3fA8Z+8pp+LKVr8Pj/XSf2q6Kb2MZXgf2K535sei4isd6rYj31KCHVG9C+bSEw3IfmPWeCQdPMeM2599HwM5WBirKDLy5ESSyHGbJeQvtbsBoH36hEieN6sp28HrXFo+ja14a2a6o4UK4ehhgSGf0ucbEQWSG81auw/cU54v0aVfWjGDrXi8Pi+EKPRdYYtIiLEadty2p/rUZBvL9mm/WJiDLNMaOeUVyilqweRGyfVlXBeBaP/+jVQOczPFGFmS++Bk9IWd6Lpt7jpasxU6z7APPwLRHgPFuCQVqaIV7/+I9+im+VqgKTGeKiwvOjn+Bxc5CW5D62/ASeOueK2hnF8niG8EAEYq1jmDhGSyCWx2BcHJTOE8fhEFVCpaA63FsyR7sf6rviHDC+EEFJ3q+0dryKKUiHSGZ/E2JBOXaLQN8iLhyCQVrKR8nK9Wg51ojGBaooBoFqfwZpInIRx0D9oPM1fPmqbJNWt2NapSceDEf4+pKBTN4/U4VZf3gbftN6M0TZjJAyixJ93RnPfF8Ec+DesR/pr5W3n7yNe1pHtmJrcJdkkBaZv1z3gbF97SbW/73a9/f+wTbAyyx+hgzEMqjK7XyvWN/GT4Lb+OrYr4JZ8WC7afvimGSZrGEIlJlujrUOsSsr0YPP8FCErPLabeh9r+ZgnhGUek7p7craTVVXy2w3UGa6GVmxkPD+EhZsjzbfmk+OqucjEUH6jfWokhckw1fRdaTDtI0OtJ68Ki4o8jF/vv7qaIxMWztPDNJE5CIxt1HrGfYwHmrplAMVbLXg9fZHeqAaUpmluUx5MBysxw5k8Frgew1ffewLvnbwI3z1z7/RH1uGhq3B46p6/t6xvw3Zvli/86ciWGs9oDCzyi6rNmoAVontlOgXB3IbgcPy4Z5TtblxUZK2jmSFmDdX3o/iiy+0Age38YUeOZOU6f0lx7u5Ctonr1W3n0Jbj/niYgTdx09h174OHOhRRRFYgrRTlT8R0QSJMVAbw5DOOrcRC0awvXfKlE2q4G0uM15nzs71KuhhjP2zQyY6GB4QZ9TVaZ25HvxeZL4f62WhHvSe1dabUWyTUhvB9gmRSR/TLw5iZryvtHUkI2eF+E6lzP5H0fVOhMB6LVr7tjlIX0UrgzQRuVCMgTq2YUhGsDVn3bMqZd5jLdNf14v7geCqqqBVW3GsjP3d703w61UF20iB3ond+0qtEdy4Ke+jVd/G06s7kkzvLxnGMdzBjUDHtPh5qzfoQVoziutqiYjITWIL1DENQ1qDmc/Ie3OwtQvA6nWWoK8uBP7wiXMv6bCq5hiDuxGMTdXsBiPYxh/oE7uwiNf1Ib2ttrgkwnSXCwqgx83kgpaU6f1NqMoXtE5osrq7VbaJF1eiZUfqpywlIkpWTIE6pvZpI5Bagq1NALZr21UXAnbB1DDrxe9r68VX1ezFtzbobdjhneCSCbYxXFikgG/ojnZfUrlIHK0977MLoTUknIsyi1dxPsrUopOU7i8jEu/QViJ7ias26e7jbWg9JwpXrsdujg8nIpeJMVDLHCqBzNUuANu8zq7N2uK51/C4lq2bq8t9eKD1BK/CzOe0gjAz6v4BeTKgfvkbjIVVbcdWnW/LuNhIt57Po0wwYpqg5D+jzeIVQ1BLdH9GT3CHiwHv5hccx0onZgAfy8CKfNS+EmGWtAWFzs+FdBzr/pneO75qW3xDuoiI0i2GQG1knlXIM41HnvHcGswy9c+y7yAWa5n+LT5ry7/AU7fGFAS9+i92BXp2WycQudenD7+ateWnePw501dy6Rp9LPb35HYdOqjZZfbxeqYO3zLtd4a23wbt4iQ1BnBcDVWSAWT3ZlPg0cYQrw/0fD7u2LvZGtRqzEFIBLKaanM1d6L7M3qCL0TTDtMPd4jtN8p5wwPtwKnT3dknLh0FWWW9fwMaLe9DToKyAQffqHeszg4fKz6AA0euivsowZ+IKMOcZyYz0WfvCk+J5JAooxPWrFf/RWS9IigaM3wFyswzdKnZx56wKRMB9QGK1UVBONnhy28zx7i+D/UgjPV4LNTMa07bjcx4H+phCPN5SYXAbFl2tN7KpyJXQxszh6mHVmL9Ldb1E9qfMWOZDTkLWGdJvdhm6Mxk9qLNHhYQ8X1J4fuLtu1AL3DzzGtERBMopqrvB53/D776g3nw7DDu/f5tU3WyXXuvKrPrNGZb1gn/j3+k7cec4T74w2/w1U/+1jGY3ntbPHesV1WDK1/qxyfHY9sGaSFqdXtE8gdKfoQxyzkR25LTjYpjTWWQlrp/1oZmke0NWXYnp8l8XxtDHLWt+NoZ7NJ+VEPPlg1D2kQhZ8PWT2h/PafC15FBfZ/8cY2RQEe1lJLvy5jcxO5Yt0S/KAjlO/4euuS2tPZq/mY1EU28mDLqtCptgOdH3wcSymyzT6YzPmaYREQTK7bhWWk0o2qV6lzGIB0L3/FevcOXyPgOmtuD0yTT+yMiIqsJz6jt2rYpCtlRSv4QhXqoi639NyGZ3h8REQVMcEadmYlDppweOY/1++g6l4Z2XzuZ3h8REQVMcEa9Bo+//SpmyR/iSMGvTREREU01E9+ZjIiIiBxNeGcyIiIicsZATURE5GIM1ERERC7GQE1ERORiDNREREQuxkBNRETkYgzURERELsZATURE5GIM1ERERC7GQE1ERORiDNREREQuxkBNRETkYgzURERELsZATURE5GIM1ERERC7GQE1ERORiDNREREQuxkBNRETkYgzURERELsZATURE5GIM1ERERC7GQE1ERORiDNREREQuxkBNRETkYgzURERELsZATURE5GIM1ERERC7GQE1ERORiDNREREQuxkBNRETkYgzURERELsZATURE5GIM1ERERC7GQE1ERORiDNREREQuxkBNRETkYgzURERELsZATURE5GIM1ERERC427ZnlKx6p5TSZhtK/n455BcD4xw9x4aM0787C2Pcj3PjlQwz+SRVPaoWo2bwKdZULUVKsinAVrVtOoVs9IiKiqSMsoy6sm4HV/zgDy9dMUyWRTEO5eO3qf5yO0m+rolDfnoYCEaSlnOceE2GGklGzox5NG81BmoiIprKwQH3Xr2e8OR7tLjIRhHPU4rhTtvqnR7h9W18c//gbjOiLlJBCzJurL/Ue6UDDllZ1YzZNRDRV2QRqtVAwDblq0VGhCtS3H+GuVmDnEQZ/8QBn/ulBhqu9p7DhPhzv4SUPEVE2CO9MNvII42oxZhEDNRERESVq+hNz5/5YLevypmHu8mn4C5Eq//e/GwF4GgrrpuPpv34Mj99/BP8trRC5Sx7DE/OnYfyzR/jyuiyRnbdmYOn/+Rjmi9eG3jzTjdeFUuutFDH/3CP8j7G/F6djobHut8XxXJbP2RHZ/9LpWLpJvF7tW77+obiAeFD4mNZG/t8XHuHrMfVyk9ylj2GhWO/pwDFPU/uCZV+y7f6ZFx9D7p1vAu9f822xb3HO/idk2/rrp2HaFfv9JuYuCv6PVVj1rWG8/29f4I4qJSKiqSs8o/5TMKPOMXUQK1g0DTkF01BQHuxkluvRl8dVu3bSZHW7CHzlfz8di+T+VLGUs+gxPPP3IlCqx0F6z+5n/kYenyoS5OsX/Z3e29yefnHwzN/ogTxIbGeR2F5IB7lg2725k53YhriYeEbsx9r5Th2LuFDwp6OneXE+ytQiERFNbeGBWhhXnb8CRNYZiGVhbdcisAeaS4Pt0ebbHz6ONZBP04JrgRxO9buHwfV/p9YvEBnvUn3RIDNvPRg/wm3zOr98iNu3rcHbLHfNY7brnRHr3dDe/zTME8di9FI32u4tnezMPdrtytkkQERESbIJ1CLwqkCVo6JUrhaEREC7Iu5EoJZVw4GsUXDs8Z0IEdyu/NNDDH4aDO53P32IK3LfgiWj/bYItovkgj5OesC8zp8eYeAXRtANIdZ7+jm5nfD1ZI3CYGA9EayNTPnTb6AVmS9UtM50wfNiLZc1DfrD1CiEd/MG1K0Ui8OjsG1BICKiKcc2o7ZW84rA/LS4FwH0tlYeDOBO2WriROD87UPbIVzGMVkYvc6vfBPfZCZR1xPB+ow6B+K9GwFYu4AxBeRC2QxgnJfABYxxYZOiJoEFq3HwWBPaj9WjRY6fHr6KrnfOwKeeJiKiqc0hUKsFxWhvHenX26/N7dQTWb0bDIj6faxiWs/o/R4IzMGahgKt+l0Ee+O8aNsJXsDobfcigH+qP06lIXG7oS8SEVEWsA3URpDS2l1V+/TtAZEdGh3NZPAyJjuZwECdaaEdymSg1oJ94HzJchHIZXV8qs7LtTPYpU1q0oHWk6MoKV6IpldWw6ueJiKiqc0+UJsCcqFqn9Y7jIW3x6a2HTYxMc2iZiPiejaTudxVNQrmCxitelucLzn7mlZNnrYLmBF0H29D6zmxyF7fRERZwz5QC0bPbyN7NDqM6VmlyBr/Wg9IKRualQAjcGKRwxzi3xbHL6NpCPN69nOUT0PpavW+PzMFXJsLGL16W5Qb7ddp6UhGRETZyiFQG4FH9aq+EpyjO5BVagFQLE/kTJYqk5WBddHfT0ehKejKCVCWy6Fe6rHFn77BDa0XuT4Eq3ypHpQ1IiM2fu1Lvr8bIdOeGgG5QF7AmLLmEdk0IBSUy3/FcYnzRERElCzHjNrMkh2qrFJOfiKldGhW3B5h8LffBLLcRX+n//KXvGkToIhAqlXV2xjpDA7BKvib6YH1VovAHQjSvwztga4uYOQ6oe3QWju1LE/neVE/ysHhWUREWcMxUAeHQ4Vnh0a1uCuI7PiCnKTkivkYxTF//BB/+MVDfOFYNa9PzvKH330T+HUvnQi4V8S6ciy3TbA1MmdJ62BnMKrFpZS3TxMRUbaa9szyFU6RjFynEI3761GLPjTv4VhqIqJsEFPVN7lMcSU2V9t2nyMioimGGfUk493ciJaN+eqR4Spat5xCt3pERERTBzPqScZ3vA3NJ69iaFgVEBHRlMaMmoiIyMWYURMREbkYAzUREZGL2QbqsjL+5AMREZEbMKMmIiJyMQZqIiIiF2OgJiIicjEGaiIiIhdjoCYiInIxBmoiIiIXs52ZTA7Pun6dv80Um7nYWbkNW3MA32Anaq9fVOXpEsv+jNf4cfR8Kw6NqeJo8taha0U1wgbnjfegoe8DXFIPiYgoc5hRJytvKZ4XQVPyllZgk76YPpne35QlfzK0Ce37V4dfmBARuQgDdbLGPsWH4/qib/ASTuiL6ZPO/Y19gNqeN7E8cOvEafUUERFNDAbqpN3EoT49sKW/2lvK9P6IiGgiMVCTeyxYjd2yOvpYEw5uLlSF6VKA+cVqkYjIxbKyM1lFmQgGpR6cHngT22+pwjBGh6x+7O3pUFXMwY5cdnyDR0SWe1M9sjMXm8pq8HLhYngD2/DD5/8IzYMXcSms01ei+7N2Jvs9luHVxWuwNsejPz3ux+nBX4v3HulYpWU4XF2HtfF0Jstbhp2la/C8xxNo+/WN9+PdfnEOo3Rqq9nRhKaV6gFG0bWvDW3X1MNUqN6Agy8uREksAfrc+2j42YB6oPNubkTLRgSPa0E5GuuqsGplPkr0l2BIrHdYrKf97xEXHgffqETJcB+a95zRyyxkO3k9aosjvFe7fQxfRec7p9CdynNDRK6VlRn1Jf9l7Utzbek6VOhF4YpqtADpG+xOUTuwCHoieL5Vag7Skghonjq0r2jC4bK5qix1niwVFyUrRLA1grQklteWb8OFJctUQWrIC6ALYl9bTUFa8uYsxlsrXkdXGt5fvGIK0jGQQbv9jfWoNQVQSS6n6hLXcR/FC9H0RiZqHYjIDbJ0eFb04UublryOtzyxDW8yMvRIGbXxGojscq8lu5yLCnFR0CICOEaiZeS66PuzZuI+fw/eHfxA7VNm9S+JCwY9cEeuVYgjoy6qx4Vy8R4gs/WP8Pb1i4HXV4jnWsRzXvFcxPMpq75fqUSVCKZDJzuw6/iIeiIdyrH72HpUOWa74fSMOh+9566iauVCQGS2re+cFZmtcZyF8C4Ygc/IdJPJqEX2375N7AOj6D3Zi+PHVZYueMVz28VzJemodSAi18nSNuqbODTYL+492Fpqk1XmrcPLMo6NX8bvowTpePlGRIZu2eZNXLrVgdo+2TksepCOlxbMLxtBWrqJE9db0TDo1x6t9aQiqxYXBvJCQzg90IrtpiAtae9vQD/fz3siZNXXzuDAHnFsW1rTHKSTI4O0vJBo2COrn83HaQrSSREB/EUZpIHeI204YArSkq/nFHYduSqW8rHqWWbVRFNd9nYmu3VJH3rkCR+LXOFZolXdnhZZaKom+TCq272lL+Fw2TJU5Onl6eXHh3774G8cD3KLnKv/Y2WM7RaZ99tO2bk6397Cpcnvb6Kdez+9FxILFmGVrKIXmfjxHr0oTM/n6BV3JZWLOA6caIrL4l7fF/G2llUuxgtFeoluLr5XKNPpfrznWCWcADlG+XwPTo97sLZUtkm/jgvV4lYp26YzFbht5BRikVpMWG6hHixyqtEu35PtrQ5rtRdPfkNDt9VSmsxXbdLFlWg51qT1gg+/rUeV9mIimuqyeniWbaeylHciMxHBerscA33+CPYO9oug7YdPduxSgbtriQjY6qVERERSVgdqGTjflUl1zhJ8T2W0mzx6hyinKuOUGJPtxB0iaLfqM4Gd7xRBG1rv75ZM9Yw2suDxEVzRCpJwd0SvRvd3mmY1c7i5bc7w4nyUqUXX+GIUQ/JeDhHborfZO95i7AhHRJNXdgdq4YTf3MlpGV5IUyeyiqII2fLYRWzXOreJYJ1rqYdPkgdP5qpFi2DnL9/Ip9EDZ7TqcWNaU88a7EymCj+jE54Y5mDeArWYatduY1jeO1wMeDe/gFq74WLXruCsXHFlFRrTdWxENGlkfaDGrW4cldls4VJsKqrQ2lFT2YlMk7cOLeV1aK9u0qu386xZc0XeMhzWhjaJwHk3lQ3jwNpyOX7ZdJEgJyQJDN3qx7sRe5rfwh+1ecUX4+WQbWyyBGRTL3ptPLh8j/ozOjkkrB5d1fURf0Skpk4fmiWVbHwhzUFqAB+fk/f5qH1lNWrM+1pQiJrqVFwo3MYXWqReiKYd5cFOX2L7jTv0oV72RtD2W71Xd+0bjdi9WaxrORfi+DZvwMFjG1CjSoho6uLPXAqBMc4a80xksYlpHHXROrxaWo21lslOQsQ4A1js46j98I17QiZYMcQ3RjyMrOa+bJ1r3PG1hvF+HO3vcNxn2mcmC2WMc1YPra6idcspdKtHkjGOOq4x3oHx0OHkdjpL6sV7tn+vxv4cDV9F1zunOI6aaIpjRi1cuv5R4Fei0tKJTLh0S+9I1jAge37rY5gNcorNowNHUv+bz+OX0azts1/sQ5UJcgKUvTEEaemSNuZarK8ea+Tx+sMzf/la2d5+1C8uEFSZRpuytFO8P+cgLXV39qFXy0BlEHsv/QHo2hns2ve+2OeoKtDJKTq7jpy1BOmE9ZxC85GrYpvqsSQnStmnjxW/PmTdt5nveBsaxPF1nVNt1gZxvL0n30fzHgZpomzAjJqIiMjFmFETERG5GAM1ERGRizFQExERuRgDNRERkYsxUBMREbkYAzUREZGLMVATERG5GAM1ERGRizFQExERuRgDNRERkYsxUBMREbkYAzUREZGLMVATERG5GAN10uRvP7+OC9Wvo6tsmSqLl7GNJuzMU0VJSfX2iIhoojBQJytvKZ7P0Re9pRXYpC+mgQq+letQoUqIiGjqY6BO1tin+HBcX/QNXsIJfZES4K1ejd37G9F+rEndGnFwRzm86vnoCtG4X60r1otE35exH31fuzfHsy8iosxgoE7aTRzqexPLe95E7fWLqoziowfYlm2VqCrOV2VSPkpWrkfL/g2oWaCKIqjZUY/aYvUgAu/mRrUvVaDJR9VGua/VDNZE5CoM1JNGEZ5UVewZsyCYdR7cXKgKUy8QYIevoutIBxq2tKpbB1pPjgLyuWvaSx3J4Nu0Ehg62YdeVWZLvKftG+XFwCh6T3ag2djXvvfROyyKiyvREiUbJyLKpGnPLF/xSC0HlJV5cf26Tz2aWjYteR1veYDTA29i+y1VKOXN1dp+L43d1B8r+uv9OHq+FYfGZDvxNmx1CJi+wSMiq7aubyX2UVSDltLF8Kpt+Pw9eHfwA6DUvB/9ORTVo8v02oj8nVh+2cjojeMMHvemJS/hZY8nkC3K/TZf/gCX1GM7NTuatOCnG0XXvja0RQmYcavegPZtC8XCVbRuOYVuvTQ+xjbOvY+GzgIcfKMSJXL5ZwPqBUHGexoSQXrX8RFVaijH7mPrUZWu90pElICsy6iv3PVr9wty5mr3OhHYFm9D+4pt6Cqzlj+VK+7GL+P3RvBMmB4828utgdfrqcZbK5rwstyPjZiCdCS5y3BY7PctU5CW5H7bXdAxreavZJAGeo8kGKRFhnzQCPQ2gdmqHM9pFx5X0RkWpKUBHJcZPPIxf75eQkQ00bIuUF8a17+gvblF2r3G3HPbrvzuLZV5BtujzbeGQT34R7JpiZGJ+0U2fyS47vlOnB4XQdQuIN/qMO1HvE6WjfegIVBmugWyaTMPtpbXYa3MrM37HOjXn86pxqumtxuqu7NPrw4Whk6+l4YMMxg4P+4RdwvK0bjD1Jlsf7QOXiIDltlzrNn4ggKtFh3nPre81rx939Ad7b64JH1V/URE8ci+Nupbl/SAJwJyIJvMLRRf1v04LeNtWLn48haBOil56/CyRy7oVdHbbwWrxy+NXcT2viM4qnqOp9x4P/b2tOKQeZ/iAmCvuraw1iyEuHYGB/bobbjh1cQpNDyK6zIzfmM9aleaOpMVqw5etm3GsgOaUU0dYzY+P18EdXHRMXRbf6xVdTehxdwG/8UohsRdSUmB/piIaIJlYWeyW/ijDIo5hVikF2CTZ7EIaCN4T1aL5yzB99QkIRXiNdK18UjtzjFQAR/+j4LtzxkhLgz6O2yHjBlNABPKyHCxENtlZjwsMuN9RkeyVjQfuaoFTaxcj93V2gsDjA5ovUeSaEuufkoEeh0DMxG5VRYG6pv4/K68X4wXtGpf1Q4tsuYTWrW4B0+q9uJFuTIN7sd7SSbURsBPOjOfqkTmLDt/Ne8RmbEp6Pp6TmGXCNZS1V8Fs+pgD+8OHJBV5nEKBOWes+jSqvZH0fuf0dq3iYgmRhYG6tAOZfqwJy2I3h2B7Ouuly/DCzJOi+B9RdxRGly7Db0JXO8IZjvOQFVFY26Baksux2ZteJUIuBvrg+3Zxk1rsxZEFq6XbUCN9mrB2FbACNq0qv22YMAPqx4nIppYWRmoL/kva0FB6zhWVIG1Ylmr3lazjHkLl6IirwjaHBuBjmTJs3RUS5Spyn7yu40vVGe1jDAuDFY+FQzeIbwlc7T74aE0tskTEcUhKwM1xm7p82eIwLlJq5Y2qrdVtbgMhqnqSCYYFwbwOMwFLi4KYp/MpBBPZeqHNtI+4ckI/qNPDodaiOdC2qAN3mcX6hlu3xWVcQ/ggDFJid1tX5+eNctx1FqZuaPZAD4+J+8Xos72/RjZuuqFTkTkAtkZqE0dyl6Q7dCm6u0Tfjl0SZSrXtof+pPsSCYF5gNfjLcq67HJFGgr5KQmK+q0rD6yi3hPq7H3YOvidZZtyMlaNhVF6L2doJq64DSbJRtfQGMM03jGy3e8V5tJrGpb6FCsQtTIqT7VLGJnP0lNhiuHnGm9ujfWi4sP0/4WlIuLEtmLXAgZvkVENJGyNFAHO5StlQHZXL2ttVN7RPli8WAEn6ekl/ZNHOrv0TPCHBGsV+g/iylv7XIClHE1NCyKE4PGNuQkKcFtXFixDW+V16Txl7vSSWTIWu9uNRQr0N5cjyZjqs9kenaHunYGh7VJTWSwNu3vDRGk5UXJcB+ao06cQkSUOVkaqI3MWXfab5osxKgWl1LZkWzsA9Se78RRvzki+3F6sBMNfR14O5bhUmobp8etr/WJQH90oDvlv9yV/glPFNm7e9/76Dpn7ew1pA3XMnX0ShHf8TY0H5HvTQ/YOjn3t+x5fkZVsRMRuUPWzfVNREQ0mWRtRk1ERDQZMFATERG5GAM1ERGRizFQExERuRgDNRERkYsxUBMREbkYAzUREZGLMVATERG5GAM1ERGRizFQExERuRgDNRERkYsxUBMREbkYAzUREZGLZWmgnoudlfK3nJuwM08VZZxxDK+jq2yZKksVN7w/IiJKBWbUEyVvKZ7P0Re9pRXYpC+6iAr2letQoUqIiCjzGKgnytin+HBcX/QNXsIJfZGSUojG/U1oPyZuO8pVmT1v9Wrs3t+ov1a7NeLgjtWoWaBe4EBfz1hHX2/35nJ41fNERKnGQD1hbuJQ35tY3vMmaq9fVGWUjJod9agtVg8iqNnRiJZtlagqzlclUj5KVlai6Y1GNDoEa+9mYz1VoMlH1cb1aNm/msGaiNKCgZocFOFJVTUftwXBrPPg5kJVmF4yiDatBIZO9qFXldkSx1a3UgboUfQe6UDDllZ160DruVFRno/aOptsXKy3faNa72QHmo319r2P3mFRXFyJlihZPBFRIqY9s3zFI7UcUFbmxfXrPvVoKpLtr9uwNcePo+dbcWhsLjYteQkvezyBrMjn70Hz5Q9wST0Ok7cMO0vX4HnzOuP9eLe/AyfGVEGAsT/1MIRv8IjIqm+qR/YqiurRUroY3gjBM7idBN+f2EdXlH0E+Dux/LJ9TUDNjiYtaOpG0bWvDW3X1MN0qN6A9m0LgXPvo6GzAAffqESJXP7ZgHqBiXrtkAi2u46PqEKDrDqXWflVtG45hW5VKhnvyX69cuw+th5VmXivRJR1mFHnLsNhEdTeMgUxyeupRrtDR6qKsiZcWFGHraHr5CzGWytkL+65qiQ1Ni0R2Wl5jAE0VJzvL6F9TCSR6R6UQRoiuNoF5riM4Ibt9VI5ntMuPK6iMyxISwM4flLPxufP10uIiFIlywO1B1vL67BWZp4DR7T2YnlrGOjXn86pxqtF+mKAyDrbSz1iwY/Tg51oUOsY68l6CG/pSyHDooLt0eZbw6BfPR+B2J8MsnJ/1mPs0fYF9GOvKgvPyuN8f7c6Aq9Z3tOJ07JsvMfyHgM3h2xa6u7s06uDhaGT76UxwxSZrMyeZZAOyYAd9ZxFlzi2ko2rbDqOqYA8PIrreoFuQQG0Zulzn1v2Yb7w8Q3d0e6LSzJT1U9E2YMZ9bgMdK04dCsY5C6JgLVXxdAFOebseC52li7Wlk4PtGL79YuWqmO5Xq0WBD143pOarLoiR//il/uzHuMHal+L8ULoxYRZXO8vRa6dwYE9ehtueDVxqshqaqO6OcYgrRlB2x7ZHj0HTW80qZ7e4hyLm749oPe3Z9RFkDI/X1wMiIuOodv6Y62quwkt5jb4L0YxJO5KSgr0x0REKZLlgVpkmrJNWT0yu3LXJts1xj6LLPPtW3pRmFuXtEzUW7g0Y+OPnYNtnO9vEjF6ePceSaBNWGTIz83Ve3zrPb3r0S5utcV6B7MDPdpTzqqf0gK6xMBMROnGjDoeuYV6dWdONdqr9VnFwm91WKu9ODUujesZ6dryemwyV6fnLcPhcj27vzZu27A6ZQV7eMcQVEPJzmRvyMz5qsjEZa/vDjQfkVX1so0ZKP6rAkuVtlkgKKvqc60H+H8m2y5ORBQZA7XbBaqp9Y5qgQuCFeqCwN/pnN1PSeXYrA2Tku3MIhMOTDyiblqbtbByvSrbgBrt1VI5dsuOZ8N9aN5zSmTi8iJoBL4eWVXfhoZ9vTg7V46JNq8jqGrtIFl9Lqv224IXCmHV40REqcFAHY+74ktd3suhSXYdrMy3vghDu+KmV1NbB8ypzmyXre3kKZdTiEVqcdJTVdZDfVdCzqVybQBt7/RhqHghmsxjoq/dhpZAr3zKGsBNvCVztPvhoXS1yRNRtmKgjocx7adnTeZ+7ELr9Q0cPf8mai0XA+Gd2dKjEE/F+17TOuHJAA4EJimxue0TgVa+TI6j1srCO5pFbFdWmbHVAD4+J+8Xos72/RhZ/lV8HG9VPBFRFAzUcbmJQ4N6r+6tK5pwuGwZKixBbC42ldWjq7o+ZT+yoff69uDJFPUij91FvKcl8uK9Ll4X0j4u3meR8/HU1AWn2SzZ+ILjlJwZ1/O5PmvZyvU4KDJmr+W4CrV5vPUx2eFV2HLImdare2O9uPgwze29oFxclOi9xUOHbxERpQJnJtNm7lLFJnJSEzle2m7WMOM5R+P9Wm9ru+2aRdpHQN46dK2oduzgJMkZ0T4c7DYNwUru/QVE3Lcc9mXfozzjM5OZyQlQosxMJoNxeNZsorVhhwzRErS5vlX7eBiHdYiIksWMOgGXrrdi+flOHPX7rV/M46rduC96kI7Z2Kd4V+wnEjkj2tbybTgcaTx1IsY+QK14n6fF+zKTFwZHB7odf/ErcxOeJKDnFHbt60DryasYUsdoGBq+iq4jHY4B13e8zdJDXCfn/n6fQZqI0iZLM+rJQmXG6BHB36lzmpzHW04RKgJJDHOGExHR5MKM2s3UBCu+kU8jdBq7OeknLyEiImcM1JOAnDv8cNHcsJnOKuQveMkf7NDay/vxLrNpIqIph1XfLrdpyetatXZEMXZeIyKiyYeBehKoKFqHV0uXYEGO9acqjd7ev791MwPjqYmIaCIwUBMREbkY26iJiIhcjIGaiIjIxRioiYiIXIyBmoiIyMUYqImIiFyMgZqIiMjFGKiJiIhcjIGaaKLIn+TcvwE16iFRNpA/Fyt/D55ixwlPkmb89rP89apO1F6/qMpTwOn3oMcj/ZoWTQrG72IPX0XrO6fQ7aafAo2VJw8Hf5Ab/tved+6iuWPM+Wc/E12P7KXtfM5AY30+auc8RNevbqMtRb/9E/hdd6ffjKcwzKi1QPs6LlSuC/vRi5ioX7iSvKUV2KQvRpDk/igpM+b9FE+s+pfYb8saxNdVislMWgZpiCC9xylIyy/JIrT/UNzq84IXa0/P1svEbffTqswgv7BDXx/C+2yBtu7BZ1P+rqaUmu/q5zi28zQTu7XPpACN0eblnzIS+PtUtN91PzkKrFyPg5sLVSlFwkCdrLFP8eG4vugbvIQT+mJqjH2A2p43sTxw68Rp9RRlyPgNPFCLqVGIxlcqRZAeRdc+EaRVaUR3HthkRQ/xxW21OFH8Y9j181toCNy+Rq96KqJE18ug63ceavclc6Zr9xF5ZqBYW3iAGxPxi7MTfT4T+PuUwbr1nDi/G19A4wJVSI4YqJN2E4f69ECa0mpvSosHN17Dl2f/1nLzDw1rz937o7Vcu135SHsuVbybX0Ct+FYfOvke2iZjdXeW8I2qy7M5MxxrJwIKpuvVziK4X9cKKBbdP3tfXFDko/aV1dHPcZZjoEYRnlRV15mR6f0lYcFq7N7fhPZjTVO6impGjsyHhvFQ1YykTzk2y7a54T4cPj6iypyI7OyOWjS7/RBDapHSKJHzbJtZTlWp+PscwHFZBV5cic3VqohsZWdnsqJ6dJUuhjeWgOnvxPLLRqYc7Dhmxzd4RGTVN9Ujk4T3F2oZDlfXYW08ncnylmFn6Ro87wn+RKb8ecx3+ztwIsrvV9fsaELTSvVAq6ptS2MW6MWsRf+AvPziQJvwg9HfYGyoHfdyXsMTT5Zg7L9ew5/vqieVGZ4G5JWswqxZeuWjDLgPRs/q64W81t4aPL7qVcwS1/Zfnf0p7qlSJ7KN2yPSp8Cx5Ir1n6oL7v+e2M7nYjt2+67egPZtC0U23YFdUQO13k7aJD60ofOj2PWJyvACHYfuo/XnX1urzo3nInQikm3ULSumW7dp5pmJxqo8rPKqLFEYunMfnf8m9hW1Wle21c5GVdydmOJfz/t0HjavzEXVHFUAESB8Yzj8r/dTEyxtz/MM8ZnMRp3Y5/C52zjwmVYY8Zwmcpz69hDswGX3mfi+jrCNeM/nDHGcudi+ciZK1HEO+e6is1d8QVTJv0H7zmRx/33akf013qhECTuWRZS1GXVMQTOFMr0/qaKsCRdW1GGrKUhL3pzFeGvF6+gqm6tKJlhuAzyrfoLHTUFampH/fTz+lz8V5VXi0RAehAY/z2vwPPl9U5CWxDaM9TwxVKjlztP3OfpJ1CAt6dm3fixax7S/FEHevP9Z4uZwgVDzVwvFv6M4+0n0IC0Z7aTDRjWs5H8gLkWENFSzah3NfjAbtaaAIJXMmYmmH7ilA5reianleXPwk8Qxe2ejJVUduozzLPY3L7C96XhOnps501G1cKYqE4mNase2fE4pOk7Hz0TcUnJBoh1nvjjOYJCWSry54jMv0C5KnKTk7/PaFZyVK6x8isMUI8jOQH2rI7yDlsxSA2WmmyW7DbZHm28Ng1FSjYT3lwSRxbeXym8CP04Pdlr21TDQr/0n95a+hJ152qttdXf2oVf/tkpjm6rISP/y+3qwvPcbfPVfwfZh/x978UAE3ln58rnQTl1efKtEBvBh3Pvjj0ztyj8KrvfkP+BbufqrHeXogfrB+KD+OCKvCNTiTh6LvEgoKRbZ+9vwB475R/jqj79yCPiFmKddF93BjRjPY6Cd1OIhvrCrcjSbkysCgeqRG3KTmZ+tp0Xw0J57iN7zX6PZ1Dmp+cP7WnVmyYrZE96r2fusCFpa8BDH+eFosAPVr75Gl3ZepqNWBLbkv/RtzvPTMyH/4jRhbdfWzlPJH+d0zK9Sn8kdkZ3+yrSNn4+iufe+el1yar4rh1/JJetxNovj7L0jL0q0l9lK+O/TYgT/0Tcq7udgHjuVOWIb9ZQ0FztLF2tLpwdasf36RUs1+SVx4VArgrVISfG8J0JWfe0MDuxpRcOW1piqahMxa5GsdhZEwPvyorW6+oH/p1rQ1Tj1vr53FmN+c27h09eTQdOmqjzUjFl6nvLgXiz5SSmmawe7Co8/WaJdIPivfGTK9H24ZzkWswLMl4n38GicmbBD79mUtoeKrGqlniH2fngbBz6xVqn6Pvsau0SwlsFj1VMTmFV78rBdXUzIqtgDn5kzufto6xhVQXAm6pLO/o02WBEwC7QCePPlNu+jV56cOTPxHe2iRWTcWjAz9fhO0XFWeWdq1coNHbLZwfzXLz77qM0QMRDHWaddbYQfp08c54HAcUaSqr/PfMyfrxYpDAP1VGSM7RZZ+9u39KIwty5pmb23cOnEjefObUCeli3/Rgt4kdwbDX1eBGTZ+WvW9/H4ojWYEZY5i6AZJUhLcXUkM6rJZ4lM+o+v4SvHoJwiIkA2/Dy0bfCB+KIXWc+/RsioZNtkIPuy3prP69WVFp6ZWCWDjVjvuGp3DfOZCFDirkQEjxgaFNLD6F3tG3OYfEOcm3P6eUnFcRpVu8VagJ6B73hldvsQH2vlRgAX96FZZ6qO0ycukOz6EaRK1OOMItG/zxC+obhS8KzEQD0V5Rbq//lzqtFe/Tou2N7qsFZ78cSZkb9Kr3a+fUb897anZ7z2gfTeFZE1jw6L7bwKz1/KCUp+isfniaCtno9uDWbKCwW79m87RjX5kNhvIl9sbmV8YUeoMm+XnZO0F08cPaMVn5YKoLaMXsdzpqNMK0ictWpXBWSRKXZ/rjcFmNupzW2yqTrOiOunQEzHSa7AQE0Txshm7486ZaZezCoIdt4KJ7LmK6/hy/8SgXNItUuXiKCtBewY8qk4O5LN0jq1RTpemlJUMNUmPVHt071XRaZodJiS7dTGZCcpbYrILt5IDeGkYaA25BRikVrMiHTu7+6I/qUhh3qZOpHZ3lw9Z7hqEw7rSBbirgjYN2S79N+KoP027t2TATtNHckcLxqiuY0v5Ld7cX7SmV7KGdmdT1ZlhleXW25JzR2dGhFnC0vl5COmgFyjZZ9Ge+x9fCxPgikbtstKM3acSYpp9rW0G8UXX6hFCsNAHVCIpyL0gE69JPYXLcgb05p61kTs1R1VRiY8KcZ026Frcly16mgW1pFsjd4urR5Z3P1Iy66dtxuUUEeyaBcNjkZwQxti78Lerf77OCubCb15qenVbQpgcYmynk9VOTsfZ7BT3JAvFeOpgz2Y52nBLNhhTG+/nonnqvSAax6ilPnjdBDz+Zxp3/vcY9P+nnKF+E6lbH+KfTRENmKgxkW8p/3n82Dr4nXYZA5seXOxqSjVY42T2d8t/FFrq12Ml8uWBTuB5S2zbkcOIxvUe3VvXdGEw/K1lufFfsrq0VVdH/FHRGrqKlGl1euJq+40zMn7YFwf+zXrydcwy5T9yklMHl8mx1Xrj0M7ks2YV4dZsl16mT5W2hKw5QQk2rCt6BLqSJbE3N/d/3lV/JuPVc+6bZY3o3OTHDJUgN3PzoTXEmBERvnsbBz8YbRhT0Zgk72ZTZ2kPCIQRLwAiHE9/xg6taimjvNp0ycvJwXRfulJPriPzpR0wlI9v+fkolYelAiqxgQeRpArFtl2WM/njB9nqFjPp7pAE69rqhefrek579Pi8/5BBvolLFiEVfK/4bnPY5v3PkvxZy4lp5+T1PRjb09HxB/bkBOLyDHLjjOThUpif8a+wtjMaOb4WsN4P472d+CQwwxl6Z+ZzJgVzMa9XozdLkGeSFdsZyTTZghTVxF25PhmOXRKPQxn7Du2Gcnk5CpPPFmldSTz30j0/0Y5dh9bj6rhPjTvOZP6TMqYFSrCjFQRZ9FSzzm6cx9d//Z1xB7CjtuQ1eoRegLHvp4+QYce6Oyk9icZjdm3JOs5U7N/acv3ET4LV+LHGekzilXM5zMwk5gN8Xn33pmJKoeZyVLB+MnL3iOtONCjCikMM2pJ/krV+U6cHrf+JcqpNo8OdKf2F7GkJPZ36XorGkS2bPkSluv5w8dhydcuF/s56veHvF5NgtLnHKSl9E948hG++q+3MTaqdiLd0ycw8V/8FRChI5n24xpqXfNX2QNj/YhBWoh3RrK4qsmdBOc23u7CudN9n9zWJ+TwqTZrwx01CUpH5CAtyW00n1dVqgYZ4K9G7lkc+3r68J/mD++KIKKKNOKYRRBqDhsulBxjiJbc/tnPzX9RwWpxe5k9zlAxn0/5y1vqMw8Kft7HbdreUyc49/1xBumImFGTS6mMV46xvtgeOehOKoVo3F+P2uJ0z51O5G56jR3/H8SCGTW5UwrahN1pBG3v9IlMJx+1b2zg/MaUlWSVt2xW48+9xoaBmtwprqFTk8y1M9h15KoI1gvRtJ/BmrKL0S6Nc++nbWriqYaBmlzJmJFsyk4u0nMKu/bJzFrgjxFQlhniz1rGhW3U5EJefGvZT5A3K8Ye2UREUxgDNRERkYux6puIiMjFGKiJiIhcjIGaiIjIxRioiYiIXIyBmoiIyMUYqImIiFyMgZqIiMjFGKiJiIhcjIGaiIjIxRioiYiIXIyBmoiIyMUYqImIiFyMgZqIiMjFGKiJiIhcjIGaiIjIxRioiYiIXIyBmoiIyMUYqImIiFyMgZqIiMjFGKiJiIhcjIGaiIjIxRioiYiIXIyBmoiIyMUYqImIiFyMgZqIiMjFGKiJiIhcjIGaiIjIxRioiYiIXIyBmoiIyMUYqImIiFyMgZqIiMjFGKiJiIhcjIGaiIjIxRioiYiIXIyBmoiIyMUYqImIiFyMgZqIiMjFGKiJiIhcjIGaiIjIxaY9s3zFI7UcUFbmxfXrPvWIslshajavQl3lQpQUqyJcReuWU+hWj4iIKH2yMFBPQ/k/TkeBehSL2797gIFP1YMJMw2lfz8d8/AN/vCLb3BXlaZbzY4mNK1UDwIYqImIMoVV3xRBIebN1Zd6j3SgYUurujFIExFlCqu+NSpbLXiEG798iME/qWJXmYiMuhCN++tRiz407zkDNoYQEWUeM+pJJCee+noiIpoSmFFrEsiovy3W+evHULBoGnJU0fhtsf5vH2IkbH1j+07t3Q77Xzody1eL7ccSoK88xJnOsI8yaVob9Vxm1EREE4UZdQJy10zH6r8TgdUUpKWcgmlY9HczsHzNNFVieITBXzzEbbFU8DfTUfptvdSQu+YxLYiPf/xN2EWCK7Lo4nyUqUUiIsosBup4iSz3medkIH6E2x8/xB/+6QHOqNsffvcI4+KZnOceCwvG8vUD4nmZPc978THk6oUiM38MT8vt3f4Gn30UkhF/KrLkwPb1QC9fZ95n4JaGbJqIiCYeA3VcpqF0tZ4t3/7dQwyIwGru1HVXBNYLKhgXLA7NqgXx/JUr4r5ABGct6xbbE0E7RwTxG7/N3JCr2BTCu3kD6uTQrOFRXNcLiYgowxio4/FtEYBlVbTIar9wGlf96Tda5pvz9LRg1mwy0qlnxjLrLq/Tq7xl0HdNT/MFq3HwWBPaj9WjZeNClAxfRdc7bJ8mIpooDNTxKFRt0iIjfuYfZ2C17S3aZCqPMPDLbzAus+5FIqu+IjLzCZ9MxdmQuN3QF4mIaAIwUE+A3MWmTmgF9pn3hLl2Bru0SU060HpyFCXFC9H0ymp41dNERJRZ05+YO/fHajng8cfn4Kuv7qhH2WAaHl/5GGaL6PnfFx7h6zFVHGraNHiWT8NfyKFQv/gGX/x7hNu5R/gftZrF0umoel7PpK98JrLqp8V+pz/Cl1EbgcW+//ox5Mhj/Hdr23h63MW1T/8X/rRgFVY9fQ8DnVdwTT1DRESZw4w6Hn96hNuygXmRXa/uWExD+d/ITmSPcKXzEUY++gY3xPZynpuO8qX6K2KRk9C+iYhoMmKgjssjDJ5RQ6z+TgTXNdOQawma01C4ZjqW/+N0FKoSs8I6vf1adh4b0UrE9n4r26v18dV26wSJiwTZY1zu+8XHUGje77fFfpfa9DInIqJJj4E6Xp8+xB8+VkOwRCb8zN9ZO5Item4acmSWHJr1LhXPLRL3oZ3H/vQNPlPbW1QXOdiO/Lse1GVnNjmxSmC/4qJh0d+I4K29KpXUj3JweBYR0YRhoE7A3Y8e4swvH+LGFX2Ck4DbahKUX4QMt/r2Y1huqvIOJbenja9eJLLxsFnNTERQvyD2e1vsx0ybuvR336gsnYiIphLO9U0R8NeziIgmGjNqiq64EpurU1+xTkRE0TGjpoi8mxvRsjFfPTJcReuWU+hWj4iIKH2YUVNEvuNtaD55FUPDqoCIiDKKGTUREZGLMaMmIiJyMQZqIiIiF8vKQC2r9omIiCYDZtREREQuxkBNRETkYgzURERELsZATURE5GIM1ERERC7GQE1ERORiDNQ0geZiZ+XruFDdhJ15qoiIiCwYqIkoBdRFV+U6VKgSN9m0RF4QRrvxgnGqkz8y1H5sA2rU48mCgZqIiLJAIb5TmQ8Mj+K6KpksGKiJaMo7cflNLO8xbkdwdFyW+nH0vLm8FYfGtJfTlFSA+cXi7uZtTLafnGKgJqIUKMKTOWqRrBasxu79TWg/1oSDmwtVIWVc9VOoEne9/zmgP55EsvJnLrPqZzzzlmFn6Ro87/HAmOHcN96PDwe7cejWTVVikO2M27AVPWjo+wCXxONNS17Cy+Z1/T1oviyfczIXFUU1aCkthDfHo8r8Yr2PxHoXQ9ZT+8uRmY3MZuLfX0XROrxaWo21gSDhtK+gijLxpVkKtU9RYHeO/J22x7uprAYvFy4W700VGfsbFK9NSzYWz/k0cfjc3+3vwImw40zwcy+qR1ep+VxEIM7ncnG8YeI6Tl3in58h9O9OFYdJxf8HoGZHE5pWqgcYRde+NrRdUw9TphCN++tRe/N9NPxsAN7q1dj8YiWqZAYpDA1fRec7p9DtuN9CcZwvoG5lPkpUydC5PnR2nkH3/A1o3zbH9rhlm2/LRgSfW1CO3a9Uif3m6y8Q+2112K+3egO2v7gQJeoY5bnpPdmL48cHbDJe6/vTjnfzKtRtFOvrLxDH+z4Oi+eC64pj2W86lojEcW4Rx6keuQ0z6ilLfMksacKFFXXYavpikbw5i7G1fBsOF6mCUDmFWCS+/A6LL6m3Qtf1VKPdqcOQWqe9XH55G0FFEtvw1KE9Umed3Hj3J79EXxf7MgdpKYZ9mcgvfdtzJG7WL191fGGBSe1vRRMOl81VZSmS4Pl0fE/ic39rxevocjrOBD73mIK0g4SP0yT2zy8Jif5/yKQFi7BKBLwhFKBxhwie24JBWiopXoimNxrRuEAVmImM/+CxenExEQzSUsnKSm2d3X+1UDy6gxs2wbasRAZB/Tmto9Yb662BUR5D2HoygDaJYzQHaSkfVRvXo2X/ass51hjvb+h28HhNQVoqWbke2801FgsKUBxTkBZc3m7NjHqqEtnOBfEFr2cn3SI7MbJnmRW+JAKO/OLvx94ekbnoTwhGpqEeyja8gV8HMu8KsU0ZNKTTA29i+y1tURFfZNV1WCsXxT6PWjJ2lYmKIHfNsl7i+9OzKvke/OK5X4vn1L7EF+rOxeKLW9tm6PvTGeue9vdjrUdsXxzv3pBzVJF305IhB/anvdac7RkZr9jOyBHUXje2kaxEzqegPnftvAx+hLevB7NKeT5bZNCX59mSSSbzuRvU8Y4b2WcUCR2nLpHPz8p4v/bbD0rFeRFk1fcreuAcOtmBXcdH1BMpJLLTdhH4dCIzPfIejveM6NmlluXKACqWRdapZ6QG8dwx8ZxcHO4T2a/IoFVg1TJeGUzlA/Fc854zIZmuynIhnvttvhZ4tay2U2S12jZE1lsNdIvjCDL2p7LnT4zXCuI4G8Vx1orj7D3SigM9qlxS729IBFSI4FuiZepnxbHKbcvaAHmhIRbD3p9B7df2fbgfM+qp6lYHGs6/ido+GVTMweMmTlxvxV6/XC7EU05Zp/zyk51rAsFBZChim/p64v9UjjXbqShbo4KK/KLusKyn77MDteePOH+ZxbO/vHUiMOpBWn7RBoK0NHYRh/qMzkKL8XKErEx+yfsGj2C5zTly+pL3jciAoB5oxGvFcdb2iXOdsiCd6PkUgUVeMAinB8R5MQU/STvOgX6x5MHzHofzEufnnpgUHKeQyOeXsGTOy7UzOLCnFQ1bWtMTpAVvyRx9QQaiLW0iyKkgLV0bwIF3+kS2LcwtsGSrNTtUkJYBTgQwcxW1r+cUdh25qj+w7YClOmdhoQjoc0RwFRchsuo5sI2RkCBt7E8E2X3iGGUVt2l/8jjb1HEWl1jb8o33VyIzZHGx07BHVqcb2xb76VTvz4nMruX9JOxIJjFQT2GBL6s8kYEVrcPhJU3oqmzSxoy+pdWkevBkrvaKECIAyqxRPTK7cld9M1nMxfcKVeDsj5BNWb5MzeLcX26h/mXj/8ghG7qJQ4Pyi178By9c6lwt6e+MObhe8l/W/oN7S1/C4bJlImPTy9MjwfOZtxTPy+xPBPe3nS6Ibl3CaXFnf17i/dwTlPRxKnF8fsnJ0HlJgl4FPYoukRHbBqJrtzGsFgNEpl8ns1AZ3G2z0CDbDlhG8BPBc/iIfnEQWTme09rqZTV8k9a5Luz2RqWlOtugvz+ZaUeukdCqxu3M16v1J2NHMomBegqTHa0Oy0koVmzDW7ItV7avWdo6U8Xo8TuCz1OdydioyNGvtn13nb7lhbsqo5Dti1pBuIjrhxr7QGSwPTg97sHaUtkmrSbJEBc+qQ/cCZ5P4wImpxrtlok8zDdVnT6RUnSccX1+U1oh5mkJvX07shPvs3q19lDfFccsU89kR/HFF/pjCxX8ZHW+pZraiep1HT/j/V3Fxw4XA8Z7GR6yf75Ga2d3eB+TAAP1VKW1n6mOVuP9OD3Yib3nj6BB3OSYUaPKjuIggvX2vjexXJzDvSJjPz3uh09c+BiBu2uJCNjqpUSZo6qgz33u3GvZpurXyMLPfuKUoaoJQhwuAIzg57y+lVF9LdufZTNApJs1a1bvL0KHL+O92AfixC5k3ISBekpahsOqo87RAb0NT7YDyna8S47Vz6kQoc07Dby5Tt3WBSNrGx/BFa0ghcQ5lG3E2/taUSsnyjjfKYK2OB5PHVpS2vM7zvNp1CLIoVCBSTwcbrF0+EpEhBqMADcc51SiMlXHal+hpk6vUo6v6jdSgEw8+IW2P0dlZOKO7cvRjiWGCxmXY6CeysYv4/eWTkiGuXhKLaXGRbynZegebF0cYahK3tyUZJxGezE8axyGYAU7K/lGPk3JF31FUYRseewithtt4pEuHvJUU0R1tKFHCZ7PsU/xoexE53heMiGGiwtXHGcGpXnCEyNTdar2lT2m9XHcsupYKzHJx/z5atFC9qRWHc0idSSLY1iTb+iOdl9SucjSoc3MW60usE0CmbjjRUaUYzFqEyYxBuqpLKdaZHjmACOHEtWjSw45SXFT9YnBHv0/s2x3rKzHziJzIFL7XbEN7UuWqbIkjH2Ad41AJscvm/clh2cFhtT0491UdDaSvczL9XHLWvW2CJBmFXKMrRqmE6nddJNpYhbZKS1SkErsfBqd6NR5CWs7l8O6xHrV9dikSlLHenGxybxfrTOj+fgn8jgzT2azxpjmko0v2I9lToLR0apqm7wQKDcFOhlsGwPDtnqPWCf0uD40qt1XbduAGtMxyclSdu9Xw50E20w9kV7UPZ+jV94XV2pjpS37lEOztPHf9dhcrQqVyNXaglGjEKGtXbOyCo3iQsCg71Mch3rsZhxHPUUFxxnbkENNxMW3nLzDOv4z+vhSY7tyWExYj1sR0LpWVDteLWtV8bbjdxPZn7GuehgmwffgIHwGNBtRxhDLX3DSe9tLzscXEPf51EX87CXx+ctezKn5HEwiHq8c3mTtOR3/ceoS+fys595J6PtPzXlJ78xkxljmUQyJ7Ng6gUiQ/fht0xjqUHKcct8cNJlnHTMzxjXHOy7cMt47XPjsYur9FTvPHKbPjpYfPvY6wNiGehjCeT33YEY9RV263oqGgX74tPHEivziU23WJ8zlqSJ7RvfoHa0s+xVfgHJKx4aU/uiByMr63hTvUfbEVkWadOxLjpnVO5Lp+7P2xJOTysjzGm2iD5klG8fqG/x19ONL8HzKz162mx/1i9epMo04btmpUBuXncJzE6D1jJft9XbnpztseNOEHWeGyTG+vWps1NDJ91I8faiq9r3Zi117OtB6TgbsIDkNaOs+p/HbAziw7310iXUChuVkKR1o3nNKVSPbt/tGrW530nMKDWKfvWI/ZoHjtARpKXoVe9SMGyNoE+fG8j4FOa2q3Kfbg7TEjJqIaLKS02m+UalNAhJXZkuTCjNqIqJJKtr4YZoaGKiJiCap6NW+NBUwUBMRTUqTfyIPig0DNRHRpBT/WGaanNiZjIiIyMWYURMREbkYAzUREZGLMVATERG5GAM1ERGRizFQExERuRgDNRERkYsxUBMREbkYAzUREZGLccITomznycPBH+RqP+5gcecumjvGnH+MP9H1yF7azucMNNbno3bOQ3T96jbarL9CSpMAM+opT/74/eu4ULkOFarEnSbLccZLfkkWof2H4lafB68qxdOz9TJx2/20KjPIL+zQ14fwPlugrXvw2RmqhOzUfFc/x7Gdp5nYrX0mBWj0qKIpL4G/T8o4BmqiTLnzwCYreogvbqvFieIfw66f30JD4PY1etVTESW6XgZdv/NQuy+ZM127j8gzA3LqbOABbkxE1jnR59Otf5/EQE1EU5dv9IG+MGeGY+1EQMF0vdpZBHf+yAW5CQP1lFeEJ3PUoqtNwHEuWI3d+5vQfqwJBzcXqsJUE9nZHbVodvshhtQipVEi59k2s5yqUvD3mZH/R9mNgXoqKqpHl2zvrZa3OqyVZTnVaNceh9yWLNNWCZO3DDuXNKHL9NquynpsylPPW6j2ZfGaw0WqyMJ4vgk7zeun4jiTUFNXiSq9rhMlG19A4wJ9OV2GVDWsVZqqWT0z0fjdAr2tW90O1s9GjcvaXr1P52G30Uaq3cQxf3dm9Ow3XnOmo0wtynbZGnlu6gss7a/efL0d2+5zSuQ49X4EpvZuu88kpe91hjjO2eJ9mbefJz5zh2AcItG/z0z/P8pGDNRTlDeJ7LSirAkXVtRhq8dj+RLx5izGWytEwC7Tfq3e5CYO9XXitFhaWx4SjIWKspewVRyPb/DXODSmCpVkjnOyMNpJh41qWMn/AMPyPg3VrFqA+MFs1HpVVa5SMmcmmn7glg5oeiemludzUTVHFWnEMXtnoyVVHbqM8yz2Ny+wvel4Tp4bEbyrFs5UZUCZase2fE4pOk7Hz0TcUpO96z27W56fKd6XKhJKvLniMy9AneXYrTL990nxY6Ceim51YHnPm+qmB1CM96AhUGa6Xb6orRIgstz2UvnN48fpwU7LOg0D/dqXirf0pbBgDFzEdvG8SBuwdbGp53beOrTI7Yn9N1+/qQqVZI4zBbo7+9Crf4tj6OR7aLumL6daoJ3U4iG+iJblzMkVgSCYHZlvLSscOkeJjEp/7iF6z3+NZlPnpOYP72vVmSUrZk94r2bvsyJoacFDHOeHo8EOVL/6Gl3aeZmOWhHYauRiUmzO89MzUaUWw9uurZ2nkj/O6ZhfpT6TO/fR+ivTNn4+iube++p1yan5rhx+JZesx9ksjrP3jrwo0V5mK+G/TyVT/4+yGQM1mczFztLF2tLpgVZsv34Rl7RHuksisNaqYPy8JzSrFsTze2U1WU41WrSsW2xvcbX4IvTjaP8Hlm25wrUzOLCnFQ1bWrHr+IgqTBeH3rMpbQ8VWdVKPUPs/fA2Dnxy37Jt32dfY5cI1jJ4rHpqArNqTx62q4sJOa73wGfmTO4+2jpGVRCcibqks3+j2lcEzAKtQFVx30evPDlzZuI72kWLyLi1YGaq6k3RcVZ5Z2LovAieHV+jW2SqQeKzT0WzhzjOOu1qI/w4feI4DwSOM5Ik/j4z+v8oOzFQU1DeUjwvq6JFVvv2Lb0ozK1LWubrLVxqO975xGU9M5ZZ9+ElepW3DPqhVd5ZRQTIhp+HTjTxQHzRi6znXyNkVHKii0D2Zb01n7dpT/TMxCoZbMR6xz/Ti8J8JgKUuCsRwSN1baNxMnpX+8YcJt8Q5+acfl5ScZxG1W6xFqBn4Dtemd0+xMdauRHAxX1o1pmq4/SJC6RP7LLWFIl6nFEk+vdJGcNATUG5hfqXjVOHLu2mOn05uojt53vEVbgHaz0iVfF3YrtT0KfUMr6wI1SZt/9wdrDad4JE6rQVYPQ6tnQCS4y1alcFZJEpdn+uNwWY26nNbbKpOs6I66dATMdJkxoDNaVchWdJMLvILZpiM43RpKOCqTbpiWqf7r0qMkWjw5RspzYmO8mqoVk0WTBQZ4ucQixSi47ujuhfUiILDuvMFXrrc2hzNjqjiW3sHfSb2qtjFMtxkj0ju/PJqszw6nLLzQVzcUecLSyVk4+YAnKNln0a7bH38bHWTh3Mhu2y0owdZ5Jimn2NJiUG6qxRiKdsx0CbjH2KD8fFvWeNTa/uWCzD4XLZGa0fey9fxInrv8ZRsT1v6TaH8dV2YjjOVJlqEzX47+Os7DTkzUtNr25TAItLlPV8qsrZ+TiDneKGfNYOcYkJ9mCepwWzYIcxvf16Jp6r0gOueYhS5o/TQcznc6Z973OPTft7SpUH/x/tKFdllEoM1FPeRbynfSnpw6YsE5bkzcWmInO2exOHBtUQqxVNOFy2DBWWoCleX1aPrup6bFIlZpuW6O3Xpwc6cEIrEdvrl+3Vcny1/TpB8Rxnaky9iRqMzk1yyFABdj87E15LgBEZ5bOzcfCH0YY9GYFN9mY2dZLyiEAQ8QIgxvX8Y+jUopo6zqf1NlaNnBRE+6Un+eA+OlPSCUv1/J6Ti1p5UCKodmvlwSBXLLLtsJ7PGT/OULGeT3WBJl7XFDKpjTYByg/S2y/Bu7kq+P9oZRUnPEkD/sxlNshbh64VcpiUHZH99hiBVScnPNHHUjsY78fR/g5rT+6ielyQ2bSsNg8Z8xzYns1zFnEeZ7JqdjShaaV6gFF07WtzxxhQ4+cOI/y8oZxAQ47NlcN+QnsUG885unMfXf/2dcQewo7bkNXqEXoCx76ePkGHHujspPYnGeWvaDWpPyzrOZO/mGUEsvto/fnXgSCuS/w4I31GsYr5fBp/M+qhhfi8e+/MRJU3tefU4N3ciJaN+eqROL8nOzhMK8WYUWeDsQ9Qe74Tp8et/0N9MuAOdIcFv0vXW7FcvP6o328NEmJ9bRKUvpAgLQOsqco7lNyeNr7aU2czq5lJnMeZrKk6UYPvk9v6hBy+kPma76hJUDoiB2lJbqP5vKpSNcgAfzVyz+LY19OH/zR/eFcEEVWkEccsglBz2HCh5BhDtOT2z35uDprBanF7mT3OUDGfT/nLW+ozDwp+3sdt2t5TxXe8N/D/iNKDGTURESWvegPaty1kRp0GzKiJiChpXm2e0lGc/YRBOtUYqImIKDkLVmO7bKc+18u5vtOAgZqIiBJUCO/mDTj4RiVKhq+i9WcDqpxSiYGaiIgSVIDNGxeKTPp9NO85FdJjnlKFncmIiIhcjBk1ERGRizFQExERuRgDNRERkYsxUBMREbkYAzUREZGLMVATERG5GAM1ERGRizFQExERuRgnPKHkOf2O9HgPGvo+wCX1kCYr4zeZ0/N7xkQUGTNqorSSQa4I7T8Ut/q84MXM07P1MnHb/bQqm5Sm+vsjmngM1JS8sQ9Q2/MmlgdunTitniKTOw8QXo/zEF/cVouT3VR/f0QThIGaiIjIxRioKXstWI3d+5vQfqwJBzcXqsJUe4Abd9Si2e2HGFKLk9tUf39EE4+Besqbi4qienRVNuFC9evq1oSuJctQoV5hp6JoHQ5XGq+PbZ1kJLK/ijL5npqwM08V5C3DziVivcA2Xo+4jZq6SlQV68slG19A4wJ9OV2G7jxUS2Yi0Dl0zvI+W4D2Hxag0aMKPDPR+N0CHFRtv/J28LszwzvxSXavrZ+NGmNbtmbA+/Rs8Trz9vPEOg7BOES874+IYsNAPZWJwHW4chvayxfDm2P+hvbA66lDuznIBczFThEw28ursTZHFWkirZOM1OxPC9or6rDVI9ZTZZJcnuhe59dVABsefaDda/wPMCzvxXPXtYLItKD9g9mo9U5HiSqT5HJou7Dja+fMRNMPRPB9doYqMdN7drc8P1O8ThUJJd5csU4B6kxloVLx/ojIGQP1lCWCtAhcWvAb78fRgSOmzl5HsHewX3zBe/Bkrv5qQ0XZS9iqBUw/TpvXOd+Jo+Oy3IOtK+qxSS6mQPL7E++htB7tpeJCRLzPveet77Nh8KJ6Xbjuzj70atFEZIMn30PbNX051XzmABbwEF/EkKUC0zG/ajZaVkwXQe8+Wn81ioaf31K3UTT33levU0RGrL1WbL/3/NdoDrz2Fpo/vK9VR5esmB3M0pWa78rhV3JJrPdhcB/Nv/oavXdEwI8QqJN7f0QUDQP1FFVRtgZr5YI2lrkDh27d1Mp1N3HiegdqRVDbfksVSXnr0CIDngiaR8+3iudM64xdxKG+Iyp4LsbLZXO14qSkaH9rPYvhGxQBWrzPE2PW93lpTC3auXYGB/a0omFLK3YdH1GF6eLQ+9m2p7RVlXcmhs6L4NnxNbpFphok1rVUK4useOVMban3w9s48Ml9y7Z9n32NXSJYy+C/6ilTVu3JQ51WDaGPkz7wWXAfPv99HOgYRVfUoJv4+yOiyBiop6S5+F6hCoD9ESYcsQQ1IbdQrzb2f4RDtgHuJg6JTFzyFi5Nvr06Vfvzd6L2esh7cRMRIBt+HjpRyAO0dYis9V9DMmI7PhFgP7HLWkN4ZmKVzHzv3MXxz/SiMJ/dR6+4KxHBP9BEUKCqyH1jiU1mkuz7I6KIGKinpCI8qVUnj+DzSBlliIocveez7645zQ5xd0TPkMRrF2kFiUvV/iKuPwXYd9KyYQTcObloMXUis95mo0p7cZA3X8+uY94PEWUUAzUREZGLMVBPaYV4KoEe2t7cIrVkw6iuHh/BFa0geZne35RljF32yaroYCcy21vHWFjbcckc2QmNiNyGgXpKuoj3tPZCD7YuXufctps31/LcJf9l/cvbs8ZhSNRc7CxdrC35Rj6NPuwpSvV4yvcXr4xMeJJB/vs4Kzt9efPCenVH4vtc7w0O70zUaCUhPNMxP0KvbyJKLwbqKerEYI9q261Ge2U9dhaZe02rSVBWbEP7kmWqTBj7AO8aAX5FEw6b15GTiVRuU0Op+vFuxM5bt/DHQG9t04QjYhubzAE5ZftLTKYnPEm/B2g7p/fqrv1BAXY/OxNeS8CegZpnZ+PgD2dbA7IR4DETTSGTomgToPwgvF2biDKHP3M5lTn9/GSAPizK2uNaTkBiBEg7duuEkxOQaGObQ/k7sfyyeWxz4vsz9iGHZiXS67tmRxOaVqoHGEXXvra0jaVOhJy4RI6JlkOzYur1rRjrObpzH13/9rW1l7YnTwTkXMsEKQHi9b13ZqLKy5+5JJoI05+YO/fHajng8cfn4Kuvpu5sBVP9/QX8z1W0Dw7gxrRv4cn/rRBz/kKVi+Dn8/8rXjl3Er/9H1UU8GecGe7G6XszUJRbBm9M64Qb+eosTk+bi796XOxXlWkTr9y8hDN3/6wKpMT3V/T4Kvxfj+fiztd9aP/KvM3YXLs5HQuXFKPkf5cTnpzAT//9rnrGHebMy8H6uY/hv2/ew+9vfKNKo7tzYxz/r+8h/iJ3BmbPeQzi7enuPETv5T/j8L/exf+n1XiYjP8Pfq/WWSLW0clJU/TXf+qZJY4F6L80jv8Vui4RpRUzaiIiIhdjGzUREZGLMVATERG5GAM1ERGRizFQExERuRgDNRERkYsxUBMREbkYAzUREZGLMVATERG5GAM1ERGRizFQExERuRgDNRERkYsxUBMREbkYAzUREZGL8dezskhF0Tq8WroEa3OCvxPtG+/Hh4PdOHQr/t9zpkQEf3/bN9iJ2uvm3+aeCqb6+yPKPGbU2aKoHu3l1ZYgLXlzFmOrp0g9mkjyC/51XKhchwpVMiXlLcXzIohJ3tIKbNIX0yCx8ykv5g5XNuFCtVhX3boq67EpT70gmoy9P6LswUCdFZbhcPlibUlmOQ09b2K5cTt/BHsHb2nPUQaMfYoPx/VF3+AlnNAXXaGirMnxYu6tFSJgL1kWPei7+P1lXiFqdjTi4DFxXo3b/kbsri5UzzvzVq/G7v2m9Y6J9TaXw6uep+zCqu9skLcOXSuq4R3vQUPfB7ikit1FVZnCzcc4mcR5PovqcUG7mPPj9MCvsd3UFKI3mcgA7sfR8604NKaeIGcLyrH7lfWoKlaPQ517Hw0/G1APrLybG9GyMV89CjHch+Y9Z5B9DXfZjRk1uUQRnlRVppQK8Z3PTR6jxsUapKVLtz7A9r4jaJgqQXpBMFs9uDl6dhs3sf2Db8ggPYrek++jeUsrGtSt+chVDMnXrFwvMmvt1VZi3e1akJbrdgTX3fc+eodFcXElWnaUay+l7MGMeoqqKKtHS+ni6FVl/k4svxze4SeYRakCkWn5/B+hWbw2PDsLzd7mYtOSl/CyxxPYv8/fI9YNyexEFtcljzGWgOJwnPGxHifyluHVxWuCVb3jIpu0CVRmCZ0Xh/fnGzyC2ut2+8r8+dy05HW8JU6D8zHZSfT9CYEMPjLHbYjPbmfpGjxvPifj/Xi3vwMnolxM1OxoQtNK9UAExK59bWi7ph6miHfzBnznk1P2263egPZtC22zauPYhkSQ3nV8RJUaRJZ+TFwApOmYyb2YUU9ZhQm2Z8kv39dVW6Uq0ogvRE8d2qubsNOpY1FOIRaJL9DD4sv7LdMXqOT1VKPdpmNTTEEl1cRxvrpEZFQr6oJBWhLLa8u34cKSZarALInzkqgMns8T/n7t3ltaE3vHsQki29IviM9ua+g5MdrSy+aqkonjO+4QpKUvRvWsOkw5ntMuIK6iMyxISwM4fnJU3Odj/ny9hLIDM+psEEcbtdahqFQGr5C2SpnBLBZfjlog6MfeHpG5aE9IoZmVH0fFusaQrwqtx7mePZ0eeFNsU1sMIQJStQicaW1Htx6nzErfHfxAZWAiay17CW9p7z38OBM7L/aMbUXNqDN8Po2sWiOy06MJDtuL/v4iCb532/UDmbis/fgIb18P1mTI89IinvPK8xWpml5Wfb9SqbUf22euaaYy6rB9a1XmlSgJybTlxUjg28ppXZrSmFFTkAjoLSoYyS86SxXw2EUc6juCo1qP3sV42SlrEV/we3vEl6Rp3Uu3OrDXry8vyJn4bEfSgsBlI0hLN3HieisaBvUDXesxZdWpOC+JyuD5PHH5TfH++/WgIIftydqF6iYcLouht3eKbFqigrRfjsEOCdIyiJcaFyjiczAFaUmel9oBWTPgwfOeCOfl2hkc2KO3/WY+2BWi8cWF4t4ma56fjxJxNzR0W3+sVXU3ocXclq6y8ZKSAv0xZQUGagrKVdXl/o8cspGbOCS+yCVv4VKbL28RyGQboXpkduWuiiyu4MeH/tAgoLvkv6wHqtyi4PtL+rwkKvPn89J1Eex6RMAe6MFp7eLDg7WletX+4aL0XmQFMnoZpO36IxhjtMd78LbTiMJbl3Ba3KX2c0idmh31qBWZfO+RU+hWZY6qn0KVWmRgzm4M1BRQkaNftfvuRhhXfXdEZVyFWKQVTFGm95eN50Xv6S3H2XfiqF9eFOjt94fTNDeOrC43gnSDXZCWjAumnGpx4RCckMV6q8Na7cXuI4ddaR3Fzr2PAz2q0EYgKPecRZfs6S17gP+n/VAuyg4M1ETkTFbtXzY1CZSmfua4QPu/bE8XQTo9/RMmVmBstAjSuxzGT4d3MhtBm1ZF3xYM7GHV45QNGKgpjDc3QtpkZDXjI7iiFaTYRGekEd7fhJ6XRKXofAaaBFLMEqSjdXozai3k0DLz7Hp2t7R1SIyXPjuZDNIyk3aa5ERz7Ta0BHrlU6jRCsJ5S+Zo98ND7EiWTRioKSDwZexZ4zDUKNiZxzfyaZq+CAvxVLzDg/Lk/NR61WesQ3OezFULFvbvzx3nJVGxnc9NS6K0QRsXIimk9V7XgnQ/9sYSWI3pSR0/hxile8KTgEI07q9H00oRpGUv7UhBWjOAj8/J+4Wosz2ucmzWJkO5io8jVJ3T1MNATUFjH+BdrYbTg60rQr645TCkwJChfrwb97CbaC7iPWPfi9dZx/LmzcWmCEFkk2kCEm/pSzF8icv21pDezJHe34Sel0TFcT7FhY6cTEW2Qes/wGE91zKgdhnDwQZTlKkGhpjJIB19SJvO6LSnPgf5+Vk+aznEThxrtXgPqsROTZ0+NEsq2fgCGhfoyyklpxAVQbpWzk52JPahVN2dfXqv7o314iLCNLe3tj052Ylw7vPoHdFoSuE46mwQxzhqLTu0jOENZTdG1VjH7jldTGNrjeNUD62cxyhbxv/aHp8h+N58IjOznxzEaf1Ezou96OdiAs6nrJVYHDqZi5U2ZMqpo5dJ1GOLeFwhbP5mA9XlTuQY8P4Ox88i7TOTGeOh1cNI7MZDc65vCsWMmkKIrKXPPDzHIKfKlL+8FVswSojIXGvPd4r96h2XDHJqyKMD3Y5Z14nB4LHKuaqjH58fH/bL99ivBWyDnABlr2OwncDzkqh4zqd4rTafd8g5keTr956X486TncJVSbIa/dL11kBvdEvA0qaAFZ+FyNAjfRYya9XmzRaGTr6X+qk4VYevRPmOt6H5iDxGOQuZQc0bziCdlZhRUxaJnqkSEbkNM2oiIiIXY6AmIiJyMQZqIiIiF2OgJiIicjF2JiMiInIxZtREREQuxkBNRETkYlkZqFntTUREkwUzaiIiIhdjoCYiInIxBmoiIiIXY6AmIiJyMQZqIiIiF8vKCU+k0N+kHRq+g853TqE71T95R0RElARm1Jp8lBQvRNMbG1CjSoiIiNwgazNqiwXlaHxlPWqLR9G1ry31PyRPRESUIGbU0rUB/EffqHpARETkHgzUim/ojloiIiJyDwZqxVsyRy0RERG5BwO1xR3cYPs0ERG5CAM1ERGRizFQWyxE0/7VqFmgHhIREU0wDs8KKETNjhdQtzIfJapk6GQHdh0fUY+IiIgyjxl1CCNIExERuQEzakP1BrRvWwgMX0XrO2fRfY2ZNBERTTxm1Io+PGsUXdp83wzSRETkDgzUFhyeRURE7sJAbTEH89jjm4iIXISBmoiIyMUYqBXO9U1ERG7EQK1wrm8iInIjBmppQTk2b8xXD4iIiNwja8dR1+xoQtNK9cAw3IfmPWeQbXOyERGRezGj1oxi6FwfWt9hkCYiInfhzGREREQuxoyaiIjIxRioiYiIXIyBmoiIyMVsAzXbp4mIiNyBGTUREZGLMVATERG5GAM1ERGRizFQExERuRgDNRERkYvZzkwmWefCHsXQ8B10vnMK3ddUEREREaVdjBl1PkqKF6LpjQ2oUSVERESUfo4ZtcWCcjS+sh61xaPo2teGNmbVREREGRFbRn1tAP/RN6oeEBERUabE3JnMN3RHLREREVGmxByovSVz1BIRERFlSpzDs+7gBtuniYiIMibOQE1ERESZFGegXoim/atRs0A9JCIiorSKbXiWphA1O15A3cp8lKiSoZMd2HV8RD0iIiKiVIu76tsI0kRERJR+sWfU1RvQvm0hMHwVre+cRfc1ZtJERETpFufwrFF0afN9M0gTERFlAodnERERuVicgXoO5rHHNxERUcbE3ZmMiIiIMifmQM25vomIiDIvzs5kRERElEmxBeoF5di8MV89ICIiokxxHEdds6MJTSvVA8NwH5r3nIFPPSQiIqL0irHqexRD5/rQ+g6DNBERUSbFMdc3ERERZRqHZxEREbkYAzUREZGLhVV9tx9rUkvxadjSqpaIiIgoVZhRExERuRgDNRERkYsxUBMREbkYAzUREZGLMVATERG5GAM1ERGRizFQExERuRgDNRERkYsxUBMREbkYAzUREZGLMVATERG5GAM1ERGRizFQExERuRgDNRERkYsxUBMREbkYAzUREZGLMVATERG5GAM1ERGRizFQExERuRgDNRERkYsxUBMREbkYAzUREZGLMVATERG5GAM1ERGRizFQExERuRgDNRERkYsxUBMREbkYAzUREZGLMVATERG5GAM1ERGRi017ZvmKR2qZiIiIXIYZNRERkYsxUBMREbkYAzUREZGLMVATERG5GAM1ERGRawH/P+uuXSO/DE/NAAAAAElFTkSuQmCC;" vertex="1" parent="E_9uIOzC6fXgHnJ6oWtM-4">
          <mxGeometry x="70" y="50" width="490" height="513" as="geometry" />
        </mxCell>
        <mxCell id="E_9uIOzC6fXgHnJ6oWtM-5" value="&lt;font style=&quot;font-size: 20px;&quot;&gt;Proper Qt Creator Project&lt;/font&gt;" style="rounded=0;whiteSpace=wrap;html=1;fillColor=#dae8fc;strokeColor=#6c8ebf;" vertex="1" parent="1">
          <mxGeometry x="1110" y="570" width="360" height="60" as="geometry" />
        </mxCell>
        <mxCell id="E_9uIOzC6fXgHnJ6oWtM-6" value="&lt;font style=&quot;font-size: 20px;&quot;&gt;Qt Creator UI Prototype&lt;/font&gt;" style="rounded=0;whiteSpace=wrap;html=1;fillColor=#d5e8d4;strokeColor=#82b366;" vertex="1" parent="1">
          <mxGeometry x="1110" y="680" width="360" height="60" as="geometry" />
        </mxCell>
        <mxCell id="E_9uIOzC6fXgHnJ6oWtM-7" value="&lt;font style=&quot;font-size: 20px;&quot;&gt;Qml tool&lt;/font&gt;" style="rounded=0;whiteSpace=wrap;html=1;fillColor=#ffe6cc;strokeColor=#d79b00;" vertex="1" parent="1">
          <mxGeometry x="1110" y="780" width="360" height="60" as="geometry" />
        </mxCell>
        <mxCell id="E_9uIOzC6fXgHnJ6oWtM-8" value="&lt;font style=&quot;font-size: 19px;&quot;&gt;Note to self: show that the UI prototype project is just calling the qml tool behind the scenes&amp;nbsp;&lt;/font&gt;" style="rounded=0;whiteSpace=wrap;html=1;fillColor=#a20025;fontColor=#ffffff;strokeColor=#6F0000;" vertex="1" parent="1">
          <mxGeometry x="330" y="220" width="810" height="60" as="geometry" />
        </mxCell>
      </root>
    </mxGraphModel>
  </diagram>
</mxfile>
